# xmcd
#
# Track frame offsets:
#	150
#	16097
#	33881
#	50515
#	68339
#	82925
#	101187
#	117792
#	134508
#	150628
#	165950
#	183095
#
# Disc length: 2758 seconds
#
# Revision: 0
# Processed by: cddbd v1.5.2PL0 Copyright (c) Steve Scherf et al.
# Submitted via: EasyCDDAExtractor 12.0.1.1
#
DISCID=830ac40c
DTITLE=Elliott Yamin - Fight For Love
DYEAR=2009
DGENRE=R&B
TTITLE0=Let Love Be
TTITLE1=Know Better
TTITLE2=Fight For Love
TTITLE3=You
TTITLE4=Can't Keep On Loving You
TTITLE5=Don't Be Afraid
TTITLE6=You Say
TTITLE7=Apart From Me
TTITLE8=Cold Heart
TTITLE9=How Do I Know
TTITLE10=This Step Alone
TTITLE11=Someday
EXTD=
EXTT0=
EXTT1=
EXTT2=
EXTT3=
EXTT4=
EXTT5=
EXTT6=
EXTT7=
EXTT8=
EXTT9=
EXTT10=
EXTT11=
PLAYORDER=
